<?xml version="1.0" encoding="utf-8"?>
<!-- Generator: Adobe Illustrator 25.1.0, SVG Export Plug-In . SVG Version: 6.00 Build 0)  -->
<svg version="1.1" xmlns="http://www.w3.org/2000/svg" xmlns:xlink="http://www.w3.org/1999/xlink" x="0px" y="0px"
	 viewBox="0 0 740 740" style="enable-background:new 0 0 740 740;" xml:space="preserve">
<style type="text/css">
	.st0{fill:#0096AF;}
</style>
<g id="logo">
</g>
<g id="レイヤー_1">
	<path class="st0" d="M695,370c0,179-146,325-325,325c-96.9,0-188.3-42.7-250.1-117.2c-4.2-5.5-3.8-13.5,0.8-18.2l58-58.4
		c3-2.5,6.8-3.8,10.6-3.8c3.8,0.4,7.6,2.1,9.7,5.1c41.5,53.7,103.7,84.2,170.9,84.2c119.3,0,216.7-97.3,216.7-216.7
		S489.3,153.3,370,153.3c-55.4,0-107.9,21.2-147.2,58l58,58.4c8,7.6,10.2,19.5,5.9,29.2c-4.2,10.2-14,16.9-25,16.9H72.1
		c-14.8,0-27.1-12.3-27.1-27.1V99.2c0-11,6.8-20.7,16.9-25c9.7-4.2,21.6-2.1,29.2,5.9l55,54.6C205.8,78.4,286.6,45,370,45
		C549,45,695,191,695,370L695,370z M424.1,248.1v189.6c0,7.6-5.9,13.5-13.5,13.5H275.2c-7.6,0-13.5-5.9-13.5-13.5v-27.1
		c0-7.6,5.9-13.5,13.5-13.5H370v-149c0-7.6,5.9-13.5,13.5-13.5h27.1C418.2,234.6,424.1,240.5,424.1,248.1z"/>
</g>
</svg>
